<?xml version="1.0" encoding="UTF-8" standalone="no"?>
<!DOCTYPE svg PUBLIC "-//W3C//DTD SVG 1.1//EN"
 "http://www.w3.org/Graphics/SVG/1.1/DTD/svg11.dtd">
<!-- Generated by graphviz version 2.49.1 (20210923.0004)
 -->
<!-- Title: Alf Pages: 1 -->
<svg width="432pt" height="230pt"
 viewBox="0.00 0.00 432.00 229.76" xmlns="http://www.w3.org/2000/svg" xmlns:xlink="http://www.w3.org/1999/xlink">
<g id="graph0" class="graph" transform="scale(0.48 0.48) rotate(0) translate(4 472)">
<title>Alf</title>
<polygon fill="white" stroke="transparent" points="-4,4 -4,-472 891,-472 891,4 -4,4"/>
<!-- Decl -->
<g id="node1" class="node">
<title>Decl</title>
<polygon fill="none" stroke="black" points="416,-0.5 416,-92.5 572,-92.5 572,-0.5 416,-0.5"/>
<text text-anchor="middle" x="437.5" y="-26.8" font-family="Times,serif" font-size="14.00">Decl</text>
<polyline fill="none" stroke="black" points="459,-0.5 459,-92.5 "/>
<text text-anchor="middle" x="515.5" y="-77.3" font-family="Times,serif" font-size="14.00">name</text>
<polyline fill="none" stroke="black" points="459,-69.5 572,-69.5 "/>
<text text-anchor="middle" x="515.5" y="-54.3" font-family="Times,serif" font-size="14.00">access</text>
<polyline fill="none" stroke="black" points="459,-46.5 572,-46.5 "/>
<text text-anchor="middle" x="515.5" y="-31.3" font-family="Times,serif" font-size="14.00">decl_flags</text>
<polyline fill="none" stroke="black" points="459,-23.5 572,-23.5 "/>
<text text-anchor="middle" x="515.5" y="-8.3" font-family="Times,serif" font-size="14.00">extern_c_linkage</text>
</g>
<!-- Nontype_decl -->
<g id="node2" class="node">
<title>Nontype_decl</title>
<polygon fill="none" stroke="black" points="336,-129.5 336,-165.5 472,-165.5 472,-129.5 336,-129.5"/>
<text text-anchor="middle" x="383.5" y="-143.8" font-family="Times,serif" font-size="14.00">Nontype_decl</text>
<polyline fill="none" stroke="black" points="431,-129.5 431,-165.5 "/>
<text text-anchor="middle" x="451.5" y="-143.8" font-family="Times,serif" font-size="14.00">type</text>
</g>
<!-- Nontype_decl&#45;&gt;Decl -->
<g id="edge17" class="edge">
<title>Nontype_decl&#45;&gt;Decl</title>
<path fill="none" stroke="black" d="M419.68,-129.26C427.13,-121.05 436.49,-110.76 446.03,-100.27"/>
<polygon fill="black" stroke="black" points="448.85,-102.37 452.98,-92.62 443.67,-97.66 448.85,-102.37"/>
</g>
<!-- Defined_decl -->
<g id="node3" class="node">
<title>Defined_decl</title>
<polygon fill="none" stroke="black" points="134.5,-202.5 134.5,-238.5 283.5,-238.5 283.5,-202.5 134.5,-202.5"/>
<text text-anchor="middle" x="180" y="-216.8" font-family="Times,serif" font-size="14.00">Defined_decl</text>
<polyline fill="none" stroke="black" points="225.5,-202.5 225.5,-238.5 "/>
<text text-anchor="middle" x="254.5" y="-216.8" font-family="Times,serif" font-size="14.00">linkage</text>
</g>
<!-- Defined_decl&#45;&gt;Nontype_decl -->
<g id="edge8" class="edge">
<title>Defined_decl&#45;&gt;Nontype_decl</title>
<path fill="none" stroke="black" d="M255.71,-202.49C283.24,-192.47 318.28,-179.71 347.38,-169.12"/>
<polygon fill="black" stroke="black" points="348.8,-172.32 357,-165.61 346.4,-165.75 348.8,-172.32"/>
</g>
<!-- Data_decl -->
<g id="node4" class="node">
<title>Data_decl</title>
<polygon fill="none" stroke="black" points="0,-280.5 0,-316.5 164,-316.5 164,-280.5 0,-280.5"/>
<text text-anchor="middle" x="36.5" y="-294.8" font-family="Times,serif" font-size="14.00">Data_decl</text>
<polyline fill="none" stroke="black" points="73,-280.5 73,-316.5 "/>
<text text-anchor="middle" x="118.5" y="-294.8" font-family="Times,serif" font-size="14.00">storage_class</text>
</g>
<!-- Data_decl&#45;&gt;Defined_decl -->
<g id="edge6" class="edge">
<title>Data_decl&#45;&gt;Defined_decl</title>
<path fill="none" stroke="black" d="M110.5,-280.44C128.51,-269.67 151.99,-255.62 171.5,-243.94"/>
<polygon fill="black" stroke="black" points="173.37,-246.9 180.15,-238.76 169.78,-240.89 173.37,-246.9"/>
</g>
<!-- Function_decl -->
<g id="node5" class="node">
<title>Function_decl</title>
<polygon fill="none" stroke="black" points="254,-275.5 254,-321.5 412,-321.5 412,-275.5 254,-275.5"/>
<text text-anchor="middle" x="302.5" y="-294.8" font-family="Times,serif" font-size="14.00">Function_decl</text>
<polyline fill="none" stroke="black" points="351,-275.5 351,-321.5 "/>
<text text-anchor="middle" x="381.5" y="-306.3" font-family="Times,serif" font-size="14.00">formals</text>
<polyline fill="none" stroke="black" points="351,-298.5 412,-298.5 "/>
<text text-anchor="middle" x="381.5" y="-283.3" font-family="Times,serif" font-size="14.00">defaults</text>
</g>
<!-- Function_decl&#45;&gt;Defined_decl -->
<g id="edge16" class="edge">
<title>Function_decl&#45;&gt;Defined_decl</title>
<path fill="none" stroke="black" d="M296.8,-275.31C280.64,-265.41 261.62,-253.75 245.43,-243.83"/>
<polygon fill="black" stroke="black" points="247.12,-240.76 236.76,-238.52 243.46,-246.73 247.12,-240.76"/>
</g>
<!-- Data -->
<g id="node6" class="node">
<title>Data</title>
<polygon fill="none" stroke="black" points="85.5,-358.5 85.5,-394.5 198.5,-394.5 198.5,-358.5 85.5,-358.5"/>
<text text-anchor="middle" x="107" y="-372.8" font-family="Times,serif" font-size="14.00">Data</text>
<polyline fill="none" stroke="black" points="128.5,-358.5 128.5,-394.5 "/>
<text text-anchor="middle" x="163.5" y="-372.8" font-family="Times,serif" font-size="14.00">initializer</text>
</g>
<!-- Data&#45;&gt;Data_decl -->
<g id="edge4" class="edge">
<title>Data&#45;&gt;Data_decl</title>
<path fill="none" stroke="black" d="M128.39,-358.25C120.56,-348.34 110.59,-335.71 101.9,-324.71"/>
<polygon fill="black" stroke="black" points="104.5,-322.36 95.56,-316.68 99.01,-326.69 104.5,-322.36"/>
</g>
<!-- Defn -->
<g id="node13" class="node">
<title>Defn</title>
<polygon fill="none" stroke="black" points="182,-280.5 182,-316.5 236,-316.5 236,-280.5 182,-280.5"/>
<text text-anchor="middle" x="209" y="-294.8" font-family="Times,serif" font-size="14.00">Defn</text>
</g>
<!-- Data&#45;&gt;Defn -->
<g id="edge5" class="edge">
<title>Data&#45;&gt;Defn</title>
<path fill="none" stroke="black" d="M157.2,-358.25C166.03,-348.25 177.29,-335.47 187.06,-324.38"/>
<polygon fill="black" stroke="black" points="189.87,-326.49 193.86,-316.68 184.62,-321.86 189.87,-326.49"/>
</g>
<!-- Function -->
<g id="node7" class="node">
<title>Function</title>
<polygon fill="none" stroke="black" points="247,-358.5 247,-394.5 357,-394.5 357,-358.5 247,-358.5"/>
<text text-anchor="middle" x="280" y="-372.8" font-family="Times,serif" font-size="14.00">Function</text>
<polyline fill="none" stroke="black" points="313,-358.5 313,-394.5 "/>
<text text-anchor="middle" x="335" y="-372.8" font-family="Times,serif" font-size="14.00">body</text>
</g>
<!-- Function&#45;&gt;Function_decl -->
<g id="edge13" class="edge">
<title>Function&#45;&gt;Function_decl</title>
<path fill="none" stroke="black" d="M309.03,-358.25C312.32,-350.19 316.34,-340.33 320.15,-331.01"/>
<polygon fill="black" stroke="black" points="323.45,-332.17 323.99,-321.59 316.97,-329.53 323.45,-332.17"/>
</g>
<!-- Function&#45;&gt;Defn -->
<g id="edge12" class="edge">
<title>Function&#45;&gt;Defn</title>
<path fill="none" stroke="black" d="M280.9,-358.25C268.17,-347.86 251.79,-334.47 237.88,-323.1"/>
<polygon fill="black" stroke="black" points="239.98,-320.3 230.02,-316.68 235.55,-325.72 239.98,-320.3"/>
</g>
<!-- Constructor -->
<g id="node8" class="node">
<title>Constructor</title>
<polygon fill="none" stroke="black" points="115.5,-431.5 115.5,-467.5 326.5,-467.5 326.5,-431.5 115.5,-431.5"/>
<text text-anchor="middle" x="157" y="-445.8" font-family="Times,serif" font-size="14.00">Constructor</text>
<polyline fill="none" stroke="black" points="198.5,-431.5 198.5,-467.5 "/>
<text text-anchor="middle" x="262.5" y="-445.8" font-family="Times,serif" font-size="14.00">member_initializers</text>
</g>
<!-- Constructor&#45;&gt;Function -->
<g id="edge14" class="edge">
<title>Constructor&#45;&gt;Function</title>
<path fill="none" stroke="black" d="M240.61,-431.31C250.86,-422.33 263.56,-411.19 274.75,-401.39"/>
<polygon fill="black" stroke="black" points="277.36,-403.75 282.57,-394.53 272.75,-398.49 277.36,-403.75"/>
</g>
<!-- Aggregate -->
<g id="node9" class="node">
<title>Aggregate</title>
<polygon fill="none" stroke="black" points="517.5,-202.5 517.5,-238.5 592.5,-238.5 592.5,-202.5 517.5,-202.5"/>
<text text-anchor="middle" x="555" y="-216.8" font-family="Times,serif" font-size="14.00">Aggregate</text>
</g>
<!-- Type_decl -->
<g id="node10" class="node">
<title>Type_decl</title>
<polygon fill="none" stroke="black" points="600.5,-129.5 600.5,-165.5 675.5,-165.5 675.5,-129.5 600.5,-129.5"/>
<text text-anchor="middle" x="638" y="-143.8" font-family="Times,serif" font-size="14.00">Type_decl</text>
</g>
<!-- Aggregate&#45;&gt;Type_decl -->
<g id="edge1" class="edge">
<title>Aggregate&#45;&gt;Type_decl</title>
<path fill="none" stroke="black" d="M575.09,-202.31C585.69,-193.24 598.87,-181.98 610.41,-172.1"/>
<polygon fill="black" stroke="black" points="612.77,-174.69 618.09,-165.53 608.22,-169.37 612.77,-174.69"/>
</g>
<!-- Type_decl&#45;&gt;Decl -->
<g id="edge19" class="edge">
<title>Type_decl&#45;&gt;Decl</title>
<path fill="none" stroke="black" d="M613.25,-129.48C600.58,-120.77 584.42,-109.66 568.11,-98.45"/>
<polygon fill="black" stroke="black" points="569.81,-95.37 559.59,-92.59 565.84,-101.14 569.81,-95.37"/>
</g>
<!-- Class -->
<g id="node11" class="node">
<title>Class</title>
<polygon fill="none" stroke="black" points="492,-280.5 492,-316.5 546,-316.5 546,-280.5 492,-280.5"/>
<text text-anchor="middle" x="519" y="-294.8" font-family="Times,serif" font-size="14.00">Class</text>
</g>
<!-- Class&#45;&gt;Aggregate -->
<g id="edge2" class="edge">
<title>Class&#45;&gt;Aggregate</title>
<path fill="none" stroke="black" d="M527.17,-280.25C531.68,-270.73 537.38,-258.7 542.44,-248.01"/>
<polygon fill="black" stroke="black" points="545.75,-249.21 546.86,-238.68 539.42,-246.22 545.75,-249.21"/>
</g>
<!-- Union -->
<g id="node12" class="node">
<title>Union</title>
<polygon fill="none" stroke="black" points="564,-280.5 564,-316.5 618,-316.5 618,-280.5 564,-280.5"/>
<text text-anchor="middle" x="591" y="-294.8" font-family="Times,serif" font-size="14.00">Union</text>
</g>
<!-- Union&#45;&gt;Aggregate -->
<g id="edge3" class="edge">
<title>Union&#45;&gt;Aggregate</title>
<path fill="none" stroke="black" d="M582.83,-280.25C578.32,-270.73 572.62,-258.7 567.56,-248.01"/>
<polygon fill="black" stroke="black" points="570.58,-246.22 563.14,-238.68 564.25,-249.21 570.58,-246.22"/>
</g>
<!-- Defn&#45;&gt;Defined_decl -->
<g id="edge9" class="edge">
<title>Defn&#45;&gt;Defined_decl</title>
<path fill="none" stroke="black" d="M209,-280.25C209,-271.02 209,-259.43 209,-248.99"/>
<polygon fill="black" stroke="black" points="212.5,-248.68 209,-238.68 205.5,-248.68 212.5,-248.68"/>
</g>
<!-- Data_member -->
<g id="node14" class="node">
<title>Data_member</title>
<polygon fill="none" stroke="black" points="302,-202.5 302,-238.5 398,-238.5 398,-202.5 302,-202.5"/>
<text text-anchor="middle" x="350" y="-216.8" font-family="Times,serif" font-size="14.00">Data_member</text>
</g>
<!-- Data_member&#45;&gt;Nontype_decl -->
<g id="edge7" class="edge">
<title>Data_member&#45;&gt;Nontype_decl</title>
<path fill="none" stroke="black" d="M363.07,-202.31C369.64,-193.68 377.72,-183.06 384.96,-173.53"/>
<polygon fill="black" stroke="black" points="387.78,-175.61 391.05,-165.53 382.21,-171.37 387.78,-175.61"/>
</g>
<!-- Enum -->
<g id="node15" class="node">
<title>Enum</title>
<polygon fill="none" stroke="black" points="611,-202.5 611,-238.5 665,-238.5 665,-202.5 611,-202.5"/>
<text text-anchor="middle" x="638" y="-216.8" font-family="Times,serif" font-size="14.00">Enum</text>
</g>
<!-- Enum&#45;&gt;Type_decl -->
<g id="edge10" class="edge">
<title>Enum&#45;&gt;Type_decl</title>
<path fill="none" stroke="black" d="M638,-202.31C638,-194.29 638,-184.55 638,-175.57"/>
<polygon fill="black" stroke="black" points="641.5,-175.53 638,-165.53 634.5,-175.53 641.5,-175.53"/>
</g>
<!-- Enumerator -->
<g id="node16" class="node">
<title>Enumerator</title>
<polygon fill="none" stroke="black" points="416.5,-202.5 416.5,-238.5 499.5,-238.5 499.5,-202.5 416.5,-202.5"/>
<text text-anchor="middle" x="458" y="-216.8" font-family="Times,serif" font-size="14.00">Enumerator</text>
</g>
<!-- Enumerator&#45;&gt;Nontype_decl -->
<g id="edge11" class="edge">
<title>Enumerator&#45;&gt;Nontype_decl</title>
<path fill="none" stroke="black" d="M444.93,-202.31C438.36,-193.68 430.28,-183.06 423.04,-173.53"/>
<polygon fill="black" stroke="black" points="425.79,-171.37 416.95,-165.53 420.22,-175.61 425.79,-171.37"/>
</g>
<!-- Destructor -->
<g id="node17" class="node">
<title>Destructor</title>
<polygon fill="none" stroke="black" points="345,-431.5 345,-467.5 421,-467.5 421,-431.5 345,-431.5"/>
<text text-anchor="middle" x="383" y="-445.8" font-family="Times,serif" font-size="14.00">Destructor</text>
</g>
<!-- Destructor&#45;&gt;Function -->
<g id="edge15" class="edge">
<title>Destructor&#45;&gt;Function</title>
<path fill="none" stroke="black" d="M363.39,-431.31C353.14,-422.33 340.44,-411.19 329.25,-401.39"/>
<polygon fill="black" stroke="black" points="331.25,-398.49 321.43,-394.53 326.64,-403.75 331.25,-398.49"/>
</g>
<!-- Template_type_arg -->
<g id="node18" class="node">
<title>Template_type_arg</title>
<polygon fill="none" stroke="black" points="683,-202.5 683,-238.5 807,-238.5 807,-202.5 683,-202.5"/>
<text text-anchor="middle" x="745" y="-216.8" font-family="Times,serif" font-size="14.00">Template_type_arg</text>
</g>
<!-- Template_type_arg&#45;&gt;Type_decl -->
<g id="edge18" class="edge">
<title>Template_type_arg&#45;&gt;Type_decl</title>
<path fill="none" stroke="black" d="M719.37,-202.49C705.31,-193.17 687.69,-181.47 672.45,-171.36"/>
<polygon fill="black" stroke="black" points="674.06,-168.23 663.79,-165.61 670.19,-174.06 674.06,-168.23"/>
</g>
<!-- Typedef -->
<g id="node19" class="node">
<title>Typedef</title>
<polygon fill="none" stroke="black" points="825,-202.5 825,-238.5 887,-238.5 887,-202.5 825,-202.5"/>
<text text-anchor="middle" x="856" y="-216.8" font-family="Times,serif" font-size="14.00">Typedef</text>
</g>
<!-- Typedef&#45;&gt;Type_decl -->
<g id="edge20" class="edge">
<title>Typedef&#45;&gt;Type_decl</title>
<path fill="none" stroke="black" d="M824.7,-205.38C821.78,-204.19 818.85,-203.05 816,-202 772.4,-185.98 721.54,-171.05 685.38,-161.06"/>
<polygon fill="black" stroke="black" points="686.16,-157.65 675.59,-158.38 684.31,-164.4 686.16,-157.65"/>
</g>
</g>
</svg>
