<?xml version="1.0" encoding="UTF-8" standalone="no"?>
<!DOCTYPE svg PUBLIC "-//W3C//DTD SVG 1.1//EN"
 "http://www.w3.org/Graphics/SVG/1.1/DTD/svg11.dtd">
<!-- Generated by graphviz version 2.49.1 (20210923.0004)
 -->
<!-- Title: G Pages: 1 -->
<svg width="372pt" height="528pt"
 viewBox="0.00 0.00 371.90 528.00" xmlns="http://www.w3.org/2000/svg" xmlns:xlink="http://www.w3.org/1999/xlink">
<g id="graph0" class="graph" transform="scale(1 1) rotate(0) translate(4 524)">
<title>G</title>
<polygon fill="white" stroke="transparent" points="-4,4 -4,-524 367.9,-524 367.9,4 -4,4"/>
<!-- a -->
<g id="node1" class="node">
<title>a</title>
<polygon fill="none" stroke="black" points="56.9,-520 2.9,-520 2.9,-484 56.9,-484 56.9,-520"/>
<text text-anchor="middle" x="29.9" y="-498.3" font-family="Times,serif" font-size="14.00">a</text>
</g>
<!-- b -->
<g id="node2" class="node">
<title>b</title>
<polygon fill="none" stroke="black" points="56.9,-448 2.9,-448 2.9,-412 56.9,-412 56.9,-448"/>
<text text-anchor="middle" x="29.9" y="-426.3" font-family="Times,serif" font-size="14.00">b</text>
</g>
<!-- a&#45;&gt;b -->
<g id="edge1" class="edge">
<title>a&#45;&gt;b</title>
<path fill="none" stroke="black" d="M29.9,-483.7C29.9,-475.98 29.9,-466.71 29.9,-458.11"/>
<polygon fill="black" stroke="black" points="33.4,-458.1 29.9,-448.1 26.4,-458.1 33.4,-458.1"/>
</g>
<!-- c -->
<g id="node3" class="node">
<title>c</title>
<ellipse fill="none" stroke="black" cx="29.9" cy="-354" rx="27" ry="18"/>
<text text-anchor="middle" x="29.9" y="-350.3" font-family="Times,serif" font-size="14.00">c</text>
</g>
<!-- b&#45;&gt;c -->
<g id="edge2" class="edge">
<title>b&#45;&gt;c</title>
<path fill="none" stroke="black" d="M29.9,-411.84C29.9,-403.06 29.9,-392.16 29.9,-382.27"/>
<polygon fill="black" stroke="black" points="33.4,-382.07 29.9,-372.07 26.4,-382.07 33.4,-382.07"/>
</g>
<!-- d -->
<g id="node4" class="node">
<title>d</title>
<ellipse fill="none" stroke="black" cx="29.9" cy="-274" rx="18" ry="18"/>
<text text-anchor="middle" x="29.9" y="-270.3" font-family="Times,serif" font-size="14.00">d</text>
</g>
<!-- c&#45;&gt;d -->
<g id="edge3" class="edge">
<title>c&#45;&gt;d</title>
<path fill="none" stroke="black" d="M29.9,-335.69C29.9,-325.89 29.9,-313.42 29.9,-302.33"/>
<polygon fill="black" stroke="black" points="33.4,-302.26 29.9,-292.26 26.4,-302.26 33.4,-302.26"/>
</g>
<!-- e -->
<g id="node5" class="node">
<title>e</title>
<ellipse fill="black" stroke="black" cx="29.9" cy="-190" rx="1.8" ry="1.8"/>
</g>
<!-- d&#45;&gt;e -->
<g id="edge4" class="edge">
<title>d&#45;&gt;e</title>
<path fill="none" stroke="black" d="M29.9,-255.61C29.9,-239.42 29.9,-215.78 29.9,-202.04"/>
<polygon fill="black" stroke="black" points="33.4,-202.02 29.9,-192.02 26.4,-202.02 33.4,-202.02"/>
</g>
<!-- f -->
<g id="node6" class="node">
<title>f</title>
<polygon fill="none" stroke="black" points="32.58,-87.05 34.36,-87.15 36.11,-87.3 37.85,-87.49 39.55,-87.74 41.21,-88.03 42.82,-88.36 44.38,-88.75 45.89,-89.18 47.33,-89.65 48.7,-90.16 49.99,-90.71 51.21,-91.31 52.35,-91.94 53.4,-92.61 54.37,-93.31 55.24,-94.04 56.02,-94.8 56.71,-95.59 57.3,-96.41 57.8,-97.25 58.21,-98.11 58.51,-98.99 58.73,-99.89 58.85,-100.8 58.89,-101.72 58.83,-102.65 58.69,-103.59 58.47,-104.53 58.17,-105.47 57.79,-106.41 57.34,-107.35 56.82,-108.28 56.23,-109.2 55.58,-110.11 54.88,-111.01 54.12,-111.89 53.31,-112.75 52.46,-113.59 51.56,-114.41 50.63,-115.2 49.66,-115.96 48.66,-116.69 47.63,-117.39 46.58,-118.06 45.51,-118.69 44.41,-119.29 43.3,-119.84 42.18,-120.35 41.04,-120.82 39.89,-121.25 38.73,-121.64 37.57,-121.97 36.4,-122.26 35.22,-122.51 34.04,-122.7 32.86,-122.85 31.68,-122.95 30.49,-123 29.3,-123 28.12,-122.95 26.93,-122.85 25.75,-122.7 24.57,-122.51 23.4,-122.26 22.23,-121.97 21.06,-121.64 19.9,-121.25 18.76,-120.82 17.62,-120.35 16.49,-119.84 15.38,-119.29 14.29,-118.69 13.21,-118.06 12.16,-117.39 11.13,-116.69 10.13,-115.96 9.17,-115.2 8.23,-114.41 7.34,-113.59 6.48,-112.75 5.67,-111.89 4.92,-111.01 4.21,-110.11 3.56,-109.2 2.98,-108.28 2.46,-107.35 2.01,-106.41 1.63,-105.47 1.33,-104.53 1.1,-103.59 0.96,-102.65 0.91,-101.72 0.94,-100.8 1.06,-99.89 1.28,-98.99 1.59,-98.11 1.99,-97.25 2.49,-96.41 3.08,-95.59 3.77,-94.8 4.55,-94.04 5.43,-93.31 6.39,-92.61 7.44,-91.94 8.58,-91.31 9.8,-90.71 11.1,-90.16 12.47,-89.65 13.91,-89.18 15.41,-88.75 16.97,-88.36 18.59,-88.03 20.25,-87.74 21.95,-87.49 23.68,-87.3 25.44,-87.15 27.21,-87.05 29,-87 30.79,-87 32.58,-87.05"/>
<text text-anchor="middle" x="29.9" y="-101.3" font-family="Times,serif" font-size="14.00">f</text>
</g>
<!-- e&#45;&gt;f -->
<g id="edge5" class="edge">
<title>e&#45;&gt;f</title>
<path fill="none" stroke="black" d="M29.9,-188.07C29.9,-182.68 29.9,-155.01 29.9,-133.27"/>
<polygon fill="black" stroke="black" points="33.4,-133.2 29.9,-123.2 26.4,-133.2 33.4,-133.2"/>
</g>
<!-- g -->
<g id="node7" class="node">
<title>g</title>
<polygon fill="none" stroke="black" points="29.9,-46 0.1,-11.5 59.69,-11.5 29.9,-46"/>
<text text-anchor="middle" x="29.9" y="-19.3" font-family="Times,serif" font-size="14.00">g</text>
</g>
<!-- f&#45;&gt;g -->
<g id="edge6" class="edge">
<title>f&#45;&gt;g</title>
<path fill="none" stroke="black" d="M29.9,-86.64C29.9,-77.75 29.9,-66.63 29.9,-56.24"/>
<polygon fill="black" stroke="black" points="33.4,-56.2 29.9,-46.2 26.4,-56.2 33.4,-56.2"/>
</g>
<!-- h -->
<g id="node8" class="node">
<title>h</title>
<text text-anchor="middle" x="104.9" y="-498.3" font-family="Times,serif" font-size="14.00">h</text>
</g>
<!-- i -->
<g id="node9" class="node">
<title>i</title>
<polygon fill="none" stroke="black" points="104.9,-448 77.9,-430 104.9,-412 131.9,-430 104.9,-448"/>
<text text-anchor="middle" x="104.9" y="-426.3" font-family="Times,serif" font-size="14.00">i</text>
</g>
<!-- h&#45;&gt;i -->
<g id="edge7" class="edge">
<title>h&#45;&gt;i</title>
<path fill="none" stroke="black" d="M104.9,-483.7C104.9,-475.98 104.9,-466.71 104.9,-458.11"/>
<polygon fill="black" stroke="black" points="108.4,-458.1 104.9,-448.1 101.4,-458.1 108.4,-458.1"/>
</g>
<!-- j -->
<g id="node10" class="node">
<title>j</title>
<polygon fill="none" stroke="black" points="120.67,-372 89.13,-372 77.9,-336 131.9,-336 120.67,-372"/>
<text text-anchor="middle" x="104.9" y="-350.3" font-family="Times,serif" font-size="14.00">j</text>
</g>
<!-- i&#45;&gt;j -->
<g id="edge8" class="edge">
<title>i&#45;&gt;j</title>
<path fill="none" stroke="black" d="M104.9,-411.84C104.9,-403.06 104.9,-392.16 104.9,-382.27"/>
<polygon fill="black" stroke="black" points="108.4,-382.07 104.9,-372.07 101.4,-382.07 108.4,-382.07"/>
</g>
<!-- k -->
<g id="node11" class="node">
<title>k</title>
<polygon fill="none" stroke="black" points="132.88,-292 88.36,-292 76.91,-256 121.43,-256 132.88,-292"/>
<text text-anchor="middle" x="104.9" y="-270.3" font-family="Times,serif" font-size="14.00">k</text>
</g>
<!-- j&#45;&gt;k -->
<g id="edge9" class="edge">
<title>j&#45;&gt;k</title>
<path fill="none" stroke="black" d="M104.9,-335.69C104.9,-325.89 104.9,-313.42 104.9,-302.33"/>
<polygon fill="black" stroke="black" points="108.4,-302.26 104.9,-292.26 101.4,-302.26 108.4,-302.26"/>
</g>
<!-- l -->
<g id="node12" class="node">
<title>l</title>
<polygon fill="none" stroke="black" points="131.9,-195.56 104.9,-208 77.9,-195.56 77.92,-175.44 131.87,-175.44 131.9,-195.56"/>
<text text-anchor="middle" x="104.9" y="-186.3" font-family="Times,serif" font-size="14.00">l</text>
</g>
<!-- k&#45;&gt;l -->
<g id="edge10" class="edge">
<title>k&#45;&gt;l</title>
<path fill="none" stroke="black" d="M104.9,-255.61C104.9,-244.77 104.9,-230.6 104.9,-218.29"/>
<polygon fill="black" stroke="black" points="108.4,-218.08 104.9,-208.08 101.4,-218.08 108.4,-218.08"/>
</g>
<!-- m -->
<g id="node13" class="node">
<title>m</title>
<polygon fill="none" stroke="black" points="131.9,-110.56 104.9,-123 77.9,-110.56 88.21,-90.44 121.58,-90.44 131.9,-110.56"/>
<text text-anchor="middle" x="104.9" y="-101.3" font-family="Times,serif" font-size="14.00">m</text>
</g>
<!-- l&#45;&gt;m -->
<g id="edge11" class="edge">
<title>l&#45;&gt;m</title>
<path fill="none" stroke="black" d="M104.9,-175.29C104.9,-163.92 104.9,-147.39 104.9,-133.33"/>
<polygon fill="black" stroke="black" points="108.4,-133.18 104.9,-123.18 101.4,-133.18 108.4,-133.18"/>
</g>
<!-- n -->
<g id="node14" class="node">
<title>n</title>
<polygon fill="none" stroke="black" points="131.9,-23 118.4,-41 91.4,-41 77.9,-23 91.4,-5 118.4,-5 131.9,-23"/>
<text text-anchor="middle" x="104.9" y="-19.3" font-family="Times,serif" font-size="14.00">n</text>
</g>
<!-- m&#45;&gt;n -->
<g id="edge12" class="edge">
<title>m&#45;&gt;n</title>
<path fill="none" stroke="black" d="M104.9,-90.43C104.9,-79.74 104.9,-64.48 104.9,-51.29"/>
<polygon fill="black" stroke="black" points="108.4,-51.27 104.9,-41.27 101.4,-51.27 108.4,-51.27"/>
</g>
<!-- o -->
<g id="node15" class="node">
<title>o</title>
<polygon fill="none" stroke="black" points="211.9,-497.99 206.55,-513.22 184.9,-520 163.25,-513.22 157.9,-497.99 172.88,-485.78 196.91,-485.78 211.9,-497.99"/>
<text text-anchor="middle" x="184.9" y="-498.3" font-family="Times,serif" font-size="14.00">o</text>
</g>
<!-- p -->
<g id="node16" class="node">
<title>p</title>
<polygon fill="none" stroke="black" points="211.9,-422.54 211.9,-437.46 196.08,-448 173.71,-448 157.9,-437.46 157.9,-422.54 173.71,-412 196.08,-412 211.9,-422.54"/>
<text text-anchor="middle" x="184.9" y="-426.3" font-family="Times,serif" font-size="14.00">p</text>
</g>
<!-- o&#45;&gt;p -->
<g id="edge13" class="edge">
<title>o&#45;&gt;p</title>
<path fill="none" stroke="black" d="M184.9,-485.46C184.9,-477.59 184.9,-467.79 184.9,-458.68"/>
<polygon fill="black" stroke="black" points="188.4,-458.46 184.9,-448.46 181.4,-458.46 188.4,-458.46"/>
</g>
<!-- q -->
<g id="node17" class="node">
<title>q</title>
<ellipse fill="none" stroke="black" cx="184.9" cy="-354" rx="18" ry="18"/>
<ellipse fill="none" stroke="black" cx="184.9" cy="-354" rx="22" ry="22"/>
<text text-anchor="middle" x="184.9" y="-350.3" font-family="Times,serif" font-size="14.00">q</text>
</g>
<!-- p&#45;&gt;q -->
<g id="edge14" class="edge">
<title>p&#45;&gt;q</title>
<path fill="none" stroke="black" d="M184.9,-411.84C184.9,-404.16 184.9,-394.88 184.9,-386.05"/>
<polygon fill="black" stroke="black" points="188.4,-386.03 184.9,-376.03 181.4,-386.03 188.4,-386.03"/>
</g>
<!-- r -->
<g id="node18" class="node">
<title>r</title>
<polygon fill="none" stroke="black" points="211.9,-266.54 211.9,-281.46 196.08,-292 173.71,-292 157.9,-281.46 157.9,-266.54 173.71,-256 196.08,-256 211.9,-266.54"/>
<polygon fill="none" stroke="black" points="215.9,-264.4 215.9,-283.6 197.29,-296 172.5,-296 153.9,-283.6 153.9,-264.4 172.5,-252 197.29,-252 215.9,-264.4"/>
<text text-anchor="middle" x="184.9" y="-270.3" font-family="Times,serif" font-size="14.00">r</text>
</g>
<!-- q&#45;&gt;r -->
<g id="edge15" class="edge">
<title>q&#45;&gt;r</title>
<path fill="none" stroke="black" d="M184.9,-331.69C184.9,-323.8 184.9,-314.68 184.9,-306.1"/>
<polygon fill="black" stroke="black" points="188.4,-306.02 184.9,-296.02 181.4,-306.02 188.4,-306.02"/>
</g>
<!-- s -->
<g id="node19" class="node">
<title>s</title>
<polygon fill="none" stroke="black" points="211.9,-182.54 211.9,-197.46 196.08,-208 173.71,-208 157.9,-197.46 157.9,-182.54 173.71,-172 196.08,-172 211.9,-182.54"/>
<polygon fill="none" stroke="black" points="215.9,-180.4 215.9,-199.6 197.29,-212 172.5,-212 153.9,-199.6 153.9,-180.4 172.5,-168 197.29,-168 215.9,-180.4"/>
<polygon fill="none" stroke="black" points="219.9,-178.26 219.9,-201.74 198.5,-216 171.29,-216 149.9,-201.74 149.9,-178.26 171.29,-164 198.5,-164 219.9,-178.26"/>
<text text-anchor="middle" x="184.9" y="-186.3" font-family="Times,serif" font-size="14.00">s</text>
</g>
<!-- r&#45;&gt;s -->
<g id="edge16" class="edge">
<title>r&#45;&gt;s</title>
<path fill="none" stroke="black" d="M184.9,-251.88C184.9,-244.04 184.9,-234.91 184.9,-226.15"/>
<polygon fill="black" stroke="black" points="188.4,-226.13 184.9,-216.13 181.4,-226.13 188.4,-226.13"/>
</g>
<!-- t -->
<g id="node20" class="node">
<title>t</title>
<polygon fill="none" stroke="black" points="184.9,-82 211.9,-116.5 157.9,-116.5 184.9,-82"/>
<text text-anchor="middle" x="184.9" y="-101.3" font-family="Times,serif" font-size="14.00">t</text>
</g>
<!-- s&#45;&gt;t -->
<g id="edge17" class="edge">
<title>s&#45;&gt;t</title>
<path fill="none" stroke="black" d="M184.9,-163.65C184.9,-151.92 184.9,-138.15 184.9,-127.01"/>
<polygon fill="black" stroke="black" points="188.4,-126.93 184.9,-116.93 181.4,-126.93 188.4,-126.93"/>
</g>
<!-- u -->
<g id="node21" class="node">
<title>u</title>
<polygon fill="none" stroke="black" points="169.13,-5 200.67,-5 211.9,-41 157.9,-41 169.13,-5"/>
<text text-anchor="middle" x="184.9" y="-19.3" font-family="Times,serif" font-size="14.00">u</text>
</g>
<!-- t&#45;&gt;u -->
<g id="edge18" class="edge">
<title>t&#45;&gt;u</title>
<path fill="none" stroke="black" d="M184.9,-81.72C184.9,-72.28 184.9,-61.19 184.9,-51.27"/>
<polygon fill="black" stroke="black" points="188.4,-51.09 184.9,-41.09 181.4,-51.09 188.4,-51.09"/>
</g>
<!-- v -->
<g id="node22" class="node">
<title>v</title>
<polygon fill="none" stroke="black" points="237.9,-496.44 264.9,-484 291.9,-496.44 291.87,-516.56 237.92,-516.56 237.9,-496.44"/>
<text text-anchor="middle" x="264.9" y="-498.3" font-family="Times,serif" font-size="14.00">v</text>
</g>
<!-- w -->
<g id="node23" class="node">
<title>w</title>
<polygon fill="none" stroke="black" points="264.9,-448 237.9,-430 264.9,-412 291.9,-430 264.9,-448"/>
<polyline fill="none" stroke="black" points="246.9,-436 246.9,-424 "/>
<polyline fill="none" stroke="black" points="255.9,-418 273.9,-418 "/>
<polyline fill="none" stroke="black" points="282.9,-424 282.9,-436 "/>
<polyline fill="none" stroke="black" points="273.9,-442 255.9,-442 "/>
<text text-anchor="middle" x="264.9" y="-426.3" font-family="Times,serif" font-size="14.00">w</text>
</g>
<!-- v&#45;&gt;w -->
<g id="edge19" class="edge">
<title>v&#45;&gt;w</title>
<path fill="none" stroke="black" d="M264.9,-483.7C264.9,-475.98 264.9,-466.71 264.9,-458.11"/>
<polygon fill="black" stroke="black" points="268.4,-458.1 264.9,-448.1 261.4,-458.1 268.4,-458.1"/>
</g>
<!-- x -->
<g id="node24" class="node">
<title>x</title>
<polygon fill="none" stroke="black" points="282.9,-372 246.9,-372 246.9,-336 282.9,-336 282.9,-372"/>
<polyline fill="none" stroke="black" points="258.9,-372 246.9,-360 "/>
<polyline fill="none" stroke="black" points="246.9,-348 258.9,-336 "/>
<polyline fill="none" stroke="black" points="270.9,-336 282.9,-348 "/>
<polyline fill="none" stroke="black" points="282.9,-360 270.9,-372 "/>
<text text-anchor="middle" x="264.9" y="-350.3" font-family="Times,serif" font-size="14.00">x</text>
</g>
<!-- w&#45;&gt;x -->
<g id="edge20" class="edge">
<title>w&#45;&gt;x</title>
<path fill="none" stroke="black" d="M264.9,-411.84C264.9,-403.06 264.9,-392.16 264.9,-382.27"/>
<polygon fill="black" stroke="black" points="268.4,-382.07 264.9,-372.07 261.4,-382.07 268.4,-382.07"/>
</g>
<!-- y -->
<g id="node25" class="node">
<title>y</title>
<ellipse fill="none" stroke="black" cx="264.9" cy="-274" rx="18" ry="18"/>
<polyline fill="none" stroke="black" points="276.8,-287.5 252.99,-287.5 "/>
<polyline fill="none" stroke="black" points="276.8,-260.5 252.99,-260.5 "/>
<text text-anchor="middle" x="264.9" y="-270.3" font-family="Times,serif" font-size="14.00">y</text>
</g>
<!-- x&#45;&gt;y -->
<g id="edge21" class="edge">
<title>x&#45;&gt;y</title>
<path fill="none" stroke="black" d="M264.9,-335.69C264.9,-325.89 264.9,-313.42 264.9,-302.33"/>
<polygon fill="black" stroke="black" points="268.4,-302.26 264.9,-292.26 261.4,-302.26 268.4,-302.26"/>
</g>
<!-- z -->
<g id="node26" class="node">
<title>z</title>
<polygon fill="none" stroke="black" points="291.9,-208 237.9,-208 237.9,-172 291.9,-172 291.9,-208"/>
<text text-anchor="middle" x="264.9" y="-186.3" font-family="Times,serif" font-size="14.00">z</text>
</g>
<!-- y&#45;&gt;z -->
<g id="edge22" class="edge">
<title>y&#45;&gt;z</title>
<path fill="none" stroke="black" d="M264.9,-255.61C264.9,-244.77 264.9,-230.6 264.9,-218.29"/>
<polygon fill="black" stroke="black" points="268.4,-218.08 264.9,-208.08 261.4,-218.08 268.4,-218.08"/>
</g>
<!-- 1 -->
<g id="node27" class="node">
<title>1</title>
<polygon fill="none" stroke="black" points="291.9,-123 237.9,-123 237.9,-87 291.9,-87 291.9,-123"/>
<text text-anchor="middle" x="264.9" y="-101.3" font-family="Times,serif" font-size="14.00">1</text>
</g>
<!-- z&#45;&gt;1 -->
<g id="edge23" class="edge">
<title>z&#45;&gt;1</title>
<path fill="none" stroke="black" d="M264.9,-171.8C264.9,-160.67 264.9,-145.94 264.9,-133.24"/>
<polygon fill="black" stroke="black" points="268.4,-133.18 264.9,-123.18 261.4,-133.18 268.4,-133.18"/>
</g>
<!-- 2 -->
<g id="node28" class="node">
<title>2</title>
<text text-anchor="middle" x="264.9" y="-19.3" font-family="Times,serif" font-size="14.00">2</text>
</g>
<!-- 1&#45;&gt;2 -->
<g id="edge24" class="edge">
<title>1&#45;&gt;2</title>
<path fill="none" stroke="black" d="M264.9,-86.64C264.9,-76.3 264.9,-62.94 264.9,-51.22"/>
<polygon fill="black" stroke="black" points="268.4,-51.05 264.9,-41.05 261.4,-51.05 268.4,-51.05"/>
</g>
<!-- 3 -->
<g id="node29" class="node">
<title>3</title>
<polygon fill="none" stroke="black" points="357.9,-520 309.9,-520 309.9,-484 363.9,-484 363.9,-514 357.9,-520"/>
<polyline fill="none" stroke="black" points="357.9,-520 357.9,-514 "/>
<polyline fill="none" stroke="black" points="363.9,-514 357.9,-514 "/>
<text text-anchor="middle" x="336.9" y="-498.3" font-family="Times,serif" font-size="14.00">3</text>
</g>
<!-- 4 -->
<g id="node30" class="node">
<title>4</title>
<polygon fill="none" stroke="black" points="363.9,-448 321.9,-448 321.9,-452 309.9,-452 309.9,-412 363.9,-412 363.9,-448"/>
<polyline fill="none" stroke="black" points="309.9,-448 321.9,-448 "/>
<text text-anchor="middle" x="336.9" y="-426.3" font-family="Times,serif" font-size="14.00">4</text>
</g>
<!-- 3&#45;&gt;4 -->
<g id="edge25" class="edge">
<title>3&#45;&gt;4</title>
<path fill="none" stroke="black" d="M336.9,-483.7C336.9,-475.98 336.9,-466.71 336.9,-458.11"/>
<polygon fill="black" stroke="black" points="340.4,-458.1 336.9,-448.1 333.4,-458.1 340.4,-458.1"/>
</g>
<!-- 5 -->
<g id="node31" class="node">
<title>5</title>
<polygon fill="none" stroke="black" points="363.9,-372 313.9,-372 309.9,-368 309.9,-336 359.9,-336 363.9,-340 363.9,-372"/>
<polyline fill="none" stroke="black" points="359.9,-368 309.9,-368 "/>
<polyline fill="none" stroke="black" points="359.9,-368 359.9,-336 "/>
<polyline fill="none" stroke="black" points="359.9,-368 363.9,-372 "/>
<text text-anchor="middle" x="336.9" y="-350.3" font-family="Times,serif" font-size="14.00">5</text>
</g>
<!-- 4&#45;&gt;5 -->
<g id="edge26" class="edge">
<title>4&#45;&gt;5</title>
<path fill="none" stroke="black" d="M336.9,-411.84C336.9,-403.06 336.9,-392.16 336.9,-382.27"/>
<polygon fill="black" stroke="black" points="340.4,-382.07 336.9,-372.07 333.4,-382.07 340.4,-382.07"/>
</g>
<!-- 6 -->
<g id="node32" class="node">
<title>6</title>
<polygon fill="none" stroke="black" points="363.9,-292 309.9,-292 309.9,-288 305.9,-288 305.9,-284 309.9,-284 309.9,-264 305.9,-264 305.9,-260 309.9,-260 309.9,-256 363.9,-256 363.9,-292"/>
<polyline fill="none" stroke="black" points="309.9,-288 313.9,-288 313.9,-284 309.9,-284 "/>
<polyline fill="none" stroke="black" points="309.9,-264 313.9,-264 313.9,-260 309.9,-260 "/>
<text text-anchor="middle" x="336.9" y="-270.3" font-family="Times,serif" font-size="14.00">6</text>
</g>
<!-- 5&#45;&gt;6 -->
<g id="edge27" class="edge">
<title>5&#45;&gt;6</title>
<path fill="none" stroke="black" d="M336.9,-335.69C336.9,-325.89 336.9,-313.42 336.9,-302.33"/>
<polygon fill="black" stroke="black" points="340.4,-302.26 336.9,-292.26 333.4,-302.26 340.4,-302.26"/>
</g>
<!-- 7 -->
<g id="node33" class="node">
<title>7</title>
<polygon fill="none" stroke="black" points="363.9,-208 360.9,-212 339.9,-212 336.9,-208 309.9,-208 309.9,-172 363.9,-172 363.9,-208"/>
<text text-anchor="middle" x="336.9" y="-186.3" font-family="Times,serif" font-size="14.00">7</text>
</g>
<!-- 6&#45;&gt;7 -->
<g id="edge28" class="edge">
<title>6&#45;&gt;7</title>
<path fill="none" stroke="black" d="M336.9,-255.61C336.9,-244.77 336.9,-230.6 336.9,-218.29"/>
<polygon fill="black" stroke="black" points="340.4,-218.08 336.9,-208.08 333.4,-218.08 340.4,-218.08"/>
</g>
</g>
</svg>
